<svg xmlns="http://www.w3.org/2000/svg" viewBox="0 0 250 250"><path d="M192.2,65.77H149.67q9.69,17.66,9.7,43a118,118,0,0,1-2.92,27.28l9.25-30.43,17,55.29H148.9l4.63-15.24A66,66,0,0,1,150.3,153a64.77,64.77,0,0,1-26.23,26.86Q111.4,187,94.12,188.81L82.55,219.58h48.53l7.49-25.39h54l7.7,25.39H250Z" style="fill:#8dc63f"/><path d="M205.69,52.67l1.4,1.21c-.48.71,0,1.29.26,1.89.13.33.36.61-.13.83-.92-.31-1.61-1.45-3-.83.32.31.52.66.8.75a3.81,3.81,0,0,1,2.18,2.28,10.63,10.63,0,0,0-.25,1.25A7.61,7.61,0,0,1,205,64.86,17.82,17.82,0,0,1,203,66.55c-.77-1.6-.66-1.9.86-2.69a3.45,3.45,0,0,0,.89-.68.75.75,0,0,0,.18-.6,3.74,3.74,0,0,1,.26-2.82,1.17,1.17,0,0,0-.25-1.07,4.48,4.48,0,0,1-1.47-2c-.09-.22-.47-.33-.71-.5a7.62,7.62,0,0,0-.81,1.36c0,.11.5.46.81.64s.89.47,1.34.71c-.25.43-.48.88-.76,1.3a2.81,2.81,0,0,1-.52.44l-1.05.91c0,.13,0,.16.06.18l1,1.41c-.49.3-1,.62-1.47.89-.8.44-.92,1-.37,1.69a3.69,3.69,0,0,1,.35.72,15.81,15.81,0,0,1-5.92,1.41,13.26,13.26,0,0,1-2.3-.42,1,1,0,0,0,.6-1.26,7.6,7.6,0,0,1,.06-1.5c.3-.1.59-.23.9-.3a1.39,1.39,0,0,0,1.25-1.63c0-.87.68-1.17,1.36-1.33,1.29-.31,1.36-.35,1.27-1.64a6.37,6.37,0,0,1-.11-1.29c0-.32.3-.82.53-.86,1.22-.22,1.3-1.32,1.81-2.08a1.39,1.39,0,0,0-1.79-.18c-.2.11-.09.8-.17,1.21,0,.22-.12.54-.28.62a5.08,5.08,0,0,1-1.54.51A1.22,1.22,0,0,0,195.83,59a11.69,11.69,0,0,0,0,1.45,1.7,1.7,0,0,1-1.45,2c-.44.13-.88.26-1.32.41-.67.23-.93.65-.55,1.32.28,1.07.58,1.23-1.13,1.49-.32,0-.88.45-.86.62.19,1.33-.67,2-1.53,2.67l-.11-.18v0l0-.23-2.31-3.49,1.23-.68-.75-1.21-1.53,1.07a8.91,8.91,0,0,0-1.05-.57c-.55-.23-.63-.51-.19-.92a2.27,2.27,0,0,0,2.08-2c.18-.85.5-1.26,1.4-.83s1.25,0,1.55-.72c.12-.26.1-.59.24-.81.28-.43.56-1,1-1.16a8.3,8.3,0,0,1,2.19-.37c.81-.09,1.08-.38,1-1.18-.12-1.13.17-1.35,1.26-1a13.86,13.86,0,0,0,2,.48c.27,0,.57-.18.86-.28-.11-.24-.24-.48-.34-.72a2.6,2.6,0,0,1-.1-.48l2.05,0,0-.41c-1.06-.24-2.12-.49-3.18-.69a.78.78,0,0,0-.64.22c-.64.8-1.36.5-2.1.23l-.82-.29c-1.7-.56-2.2-.29-2.56,1.43a2.14,2.14,0,0,1-1.92,2,10.4,10.4,0,0,0-2,.68l-.53-3.71,0-.39a2.84,2.84,0,0,1,.51,0,1.79,1.79,0,0,0,2.12-.5c.12-.15.41-.19.63-.26,1.12-.35,2.27-.64,3.38-1a2.63,2.63,0,0,1,2.46.27,2.61,2.61,0,0,0,1.18.38c1,.07,2.08.06,3.14.08-.14-.13-.29-.39-.5-.46-1.63-.51-3.27-1-4.92-1.46a2.17,2.17,0,0,0-1,.2,9,9,0,0,1-1.81.56,18.65,18.65,0,0,0-5.35,1.58l-.29-.61A40.09,40.09,0,0,1,191,49.18a14.89,14.89,0,0,1,8.93.33c.34.12.67.27,1,.41l.65,1c-.19.22-.44.39-.51.62s.28.31.46.5l.92-1.53.76.32v0c-.36.36-.86.67-1,1.11a1.06,1.06,0,0,1-1.22.77c-.23,0-.68.43-.67.64,0,1,1.59,2.16,2.64,2.1.87-.05,1.07-.39.64-1.14-.17-.3-.47-.53-.6-.83a1.21,1.21,0,0,1-.1-.9,10,10,0,0,1,1-1.3l1,.68a9.12,9.12,0,0,0-.95.45c-.17.09-.42.25-.44.39a1,1,0,0,0,.27.58c.55-.14,1.1-.34,1.64-.52h0Z" style="fill:#51ac47"/><path d="M185.31,51.62c.1.2.19.41.29.62l.15.58,0,.39a3.34,3.34,0,0,0-.58.61,13.74,13.74,0,0,1-1,1.81,11.85,11.85,0,0,1-8.06,4.49c-.51.06-1.09.39-1.6-.06-.15-.37-.32-.72-.44-1.1-.34-1.07-.67-2.16-1-3.24-.32-1.36-.63-2.72-.94-4.07a6.1,6.1,0,0,0-.31-1c-.2-.38-.21-1-.92-.85l-1-3.34-.12-.93a12.57,12.57,0,0,1,7.87-.5,25.91,25.91,0,0,1,3.37,1.6l-.33.53-1.15,1L178.27,48c-1,.24-1.34.62-1,1.34a2.47,2.47,0,0,0,2,1.5,3.55,3.55,0,0,0,1.21-.34c.16-.12.09-.63,0-1a2,2,0,0,0-.3-.6l.63-.61,1-.74.3-.16Z" style="fill:#fcbc15"/><path d="M144.64,55.32l-3.32-1.85a1.61,1.61,0,0,1-.28-.3c.6-.07,1.21-.17,1.81-.2.43,0,1,.19,1.26,0,1.12-.66,2.17-1.45,3.25-2.19a3.5,3.5,0,0,1,.86-.53c1.31-.43,2.45-2.88,1.86-4.13a1.69,1.69,0,0,0-.59-.6c-.74-.53-1.5-1.05-2.26-1.56a4.88,4.88,0,0,0-.66-.29l-.1-.14,0-.54.35-1c.2.11.49.18.57.35,1.14,2.4,3.44,3,5.68,3.71a11.72,11.72,0,0,0,1.74.27c.56-1.53.3-2-1.36-2.51-.28-.08-.54-.2-.81-.3a3.28,3.28,0,0,0-.19-.63c-.48-.89-1.43-1.15-2.24-1.61l.16-.71c.72.2,1.09-.23,1.42-.76a.15.15,0,0,0,.13,0L153.47,41c0,.1-.05.2-.07.29a1.91,1.91,0,0,0,0,.45c.3,0,.6,0,.9.07l1.38,2.2.47,2,8.6-1.87.78-.08c.07.17.09.41.22.52a13.36,13.36,0,0,1,3.17,3.62,9.13,9.13,0,0,1,.55,1.84l-3.95.82-2.37.36-.28.11-1.69.33a4.34,4.34,0,0,0-3.81-3.3,5.53,5.53,0,0,0-3.5.42c-2.28,1.11-4.43,2.42-5.54,4.88a1.06,1.06,0,0,0,.23,1.41,2.58,2.58,0,0,1,.54,3.53s.1.19.15.28l-.59.37-.5.26a2.54,2.54,0,0,1-3,0l.31-.22,1.61.42c-.47-1-1.12-1.71-.12-2.44h0l.55.71a.69.69,0,0,1,.11.13l.24.08.38,0c.67.28.7-.16.7-.63h0c.22-.8-.08-1.14-1.12-1.26.24-1-.09-1.67-.9-1.64-.26,0-.51,0-.77.06C145.38,54.34,145.08,55,144.64,55.32Zm16.43-6c1.16.5,1.51.23,1.56-1Zm5.19-.83-.54-.09-.27,1.32c.2,0,.57.05.58,0A10.25,10.25,0,0,0,166.26,48.53Z" style="fill:#ea2a26"/><path d="M210.74,93.36c-.62,3.4-5.37,4.33-7.89,1.83-.49-.49-.76-.52-1.24,0a5.84,5.84,0,0,1-1.27.73A7.1,7.1,0,0,0,199.2,95a34.46,34.46,0,0,0-3.74-1.52,1.62,1.62,0,0,0-1.33.46c-.38.39-.1.91.36,1.14a9.54,9.54,0,0,0,2,.79c.89.22,1.82.3,2.73.44-2.46.92-6.11-.78-7.33-2.77a.94.94,0,0,0-1.23-.51,5.07,5.07,0,0,1-5.32-1.73l-.1-.12-.49-.55L184,87.77a4.22,4.22,0,0,1,.92-3.43c.15.3.23.73.48.86.76.38.81.89.68,1.66A1.35,1.35,0,0,0,186.7,88c1.52.51,3.09.89,4.65,1.29a.69.69,0,0,0,.49,0c.59-.36,1.17-.74,1.74-1.13s.6-1.25-.07-1.51-1.24-.56-1.93,0c-.2.15-.7-.07-1.06-.13a3.74,3.74,0,0,1,.65-.13c.53,0,.66-.25.47-.72l.3-.16,1.31.24.22-.14s0,0,.06-.07l.86.37c0-.28.08-.57.13-.85s.07-.33.1-.49l1.34-.3,2.31.4,1.17.49,2.17,1.53c.64.73,1.17.26,1.69-.17l2.1-.31.25.22-1.64.73c-.71.3-1.14.67-.57,1.48a3,3,0,0,1,.23.89l-1.18.25c-.54-1-1-1.95-1.63-2.87a2.18,2.18,0,0,0-1.12-.81,11.55,11.55,0,0,0-1.78-.15c-.78-.11-1.54-.26-2.32-.4-.13,1.37.3,2.06,1.36,2.32l.05.06,0,.07-.57.7a2.1,2.1,0,0,0-.35-.6,7.23,7.23,0,0,0-.85-.54,8.2,8.2,0,0,0-.4.78c-.13.29-.2.6-.33.89-.29.63-.6,1.26-.88,1.84.86.38,1.61.75,2.38,1a5.42,5.42,0,0,0,1.73.46c.86,0,1.65,0,2.15.88a.61.61,0,0,0,.36.22c.74.17,1.48.32,2.22.47,1,1.24,2.38,1.55,3.78,1.87.11,0,.5-.57.46-.62a2,2,0,0,0-.89-.67,2.55,2.55,0,0,1-1.67-.9c-.24-.32-.52-.94-1.17-.56l.27-1.18c.89,1.94,2.82,2,4.33,2.66a.63.63,0,0,0,.41-.09C209,94.21,209.85,93.78,210.74,93.36ZM192.2,92c-.23-.22-.39-.52-.62-.58-1.3-.35-2.59-.71-3.92-.94-.71-.12-1,.47-.7,1.14a1.78,1.78,0,0,0,1.8,1C189.88,92.54,191.1,93.13,192.2,92Z" style="fill:#faaa1a"/><path d="M182.2,84.52c-.84.58-1.64.23-2.45-.08l-2.39-.91c-.27-.1-.61-.15-.78-.35-1.07-1.24-2.63-1.14-4-1.51-.65-.18-1.37-.23-1.67-1,.15-.24.29-.47.45-.7l2.19-3.23.32-.65c0,.57.29.56.68.31l2.33,1.41.16-1.59.4.51.66-.73.78-.42-.56,2.09c.91-.25,1.56-.48,2.24-.6a4.46,4.46,0,0,1,1.2.1c-.63.36-.66.85-.2,1.25l1,.51c-.74.61-.48,1.49-.51,2.24C182,82.28,182.13,83.4,182.2,84.52Z" style="fill:#ea2a26"/><path d="M202.49,89.74l1.18-.25a3,3,0,0,0-.23-.89c-.57-.81-.14-1.18.57-1.48l1.64-.73,1.14.28a12.1,12.1,0,0,1,3.7,4.06,3.15,3.15,0,0,1,.25,2.63c-.89.42-1.78.85-2.68,1.26a.63.63,0,0,1-.41.09c-1.51-.68-3.44-.72-4.33-2.66l-.27,1.18-.51.88c-.74-.15-1.48-.3-2.22-.47a.61.61,0,0,1-.36-.22c-.5-.84-1.29-.86-2.15-.88a5.42,5.42,0,0,1-1.73-.46c-.77-.3-1.52-.67-2.38-1,.28-.58.59-1.21.88-1.84.13-.29.2-.6.33-.89a8.2,8.2,0,0,1,.4-.78,7.23,7.23,0,0,1,.85.54,2.1,2.1,0,0,1,.35.6L197,91a2.12,2.12,0,0,0,.64.22A24.85,24.85,0,0,0,200.5,91c.27,0,.47-.5.71-.76Zm4.79,1.73a1.53,1.53,0,0,0,2,.66c-.17-.47-.35-.92-.5-1.38a1,1,0,0,1-.06-.55,1.08,1.08,0,0,0-1-1.45,2.58,2.58,0,0,1-.69-.16c-.56-.26-1.11-.56-1.67-.84L205,88l.6,1.6-.54,2.23c1.51.31,1.51.31,2.19-.4Z" style="fill:#fcbc15"/><path d="M138.7,49a6.17,6.17,0,0,1,.31-4.07,38.22,38.22,0,0,1,2.17-4h.42c-.21.34-.44.68-.63,1a3.18,3.18,0,0,0-.46,2.73,2.53,2.53,0,0,0,3.63,1.21,5,5,0,0,0,2.24-2.08c1.53,2.26,1,5-1.51,6.82C143.05,51.89,140,51.08,138.7,49Z" style="fill:#ee7124"/><path d="M207.22,56.6c.49-.22.26-.5.13-.83-.23-.6-.74-1.18-.26-1.89,1,1.34,1.95,2.65,2.87,4a12.74,12.74,0,0,1,1.71,5c.19,1,0,2.14.16,3.19a11.88,11.88,0,0,1-.52,4.36,1.66,1.66,0,0,1-.18.38l-1.07.86-3.91,3.1-.2-.7-.26-.79a7.57,7.57,0,0,0,.56-.74c.12-.21.3-.53.22-.69-.48-1,.17-1.12.83-1.36s1.45-.56,1.16-1.58c.38-.64.76-1.28,1.12-1.93.08-.14.17-.39.1-.47-.46-.63-.14-1.21,0-1.81a2.71,2.71,0,0,0,0-.75,3.59,3.59,0,0,1,.07-1.19c.27-.67.58-1.26-.14-1.86a1.41,1.41,0,0,1-.42-.84A5.78,5.78,0,0,0,207.22,56.6Z" style="fill:#469f47"/><path d="M164.06,75.54l-2.89-1.7.77,0a2.88,2.88,0,0,0,3-3.28,2.72,2.72,0,0,0-2.79-2.84h-.84l.53-2a4.27,4.27,0,0,0,.49-.56c.42-.67.82-1.35,1.23-2l.32-.27a8.53,8.53,0,0,0-.23,1.79,9.07,9.07,0,0,0,4.5,7.46c.78.49,1.62.87,2.43,1.29l.28,1.32-1,.47-.17-.14s0,.1,0,.1a.58.58,0,0,0,.18.08l.67.38-3.32.93-.32,0a2.9,2.9,0,0,0-2.76-.89h0Z" style="fill:#a3732b"/><path d="M138.7,49c1.32,2.1,4.35,2.91,6.17,1.61,2.5-1.78,3-4.56,1.51-6.82h0l.18-.09a4.88,4.88,0,0,1,.66.29c.76.51,1.52,1,2.26,1.56a1.69,1.69,0,0,1,.59.6c.59,1.25-.55,3.7-1.86,4.13a3.5,3.5,0,0,0-.86.53c-1.08.74-2.13,1.53-3.25,2.19-.3.18-.83,0-1.26,0-.6,0-1.21.13-1.81.2C139.79,52,138.68,50.82,138.7,49Z" style="fill:#ef4624"/><path d="M190.52,86.48c.36.06.86.28,1.06.13.69-.55,1.3-.25,1.93,0s.71,1,.07,1.51-1.15.77-1.74,1.13a.69.69,0,0,1-.49,0c-1.56-.4-3.13-.78-4.65-1.29a1.35,1.35,0,0,1-.61-1.16c.13-.77.08-1.28-.68-1.66-.25-.13-.33-.56-.48-.86l1-1.25.28,0c.61.38,1.21.77,1.83,1.12.05,0,.24-.2.37-.31l1.36.61.15.3C189.52,85.55,190,86,190.52,86.48Z" style="fill:#fcbc15"/><path d="M153.4,41.29c0-.09,0-.19.07-.29s0-.39,0-.59c.06-2.19,1.82-3.18,3.81-2.16l1.76,2.86.35.87c.13.33.27.65.41,1l1-.46,1-.44-.08.72-1.71,2-1.14-1.65-1.06-1,.48-.63a2.42,2.42,0,0,0-2.19-.81C155.22,40.88,154.32,41.11,153.4,41.29Z" style="fill:#51ac47"/><path d="M207.58,78.73l.48,1a.19.19,0,0,1-.12.11l-.14-.05.07.13-.06,0h.06L205.8,81l.59.75a3.14,3.14,0,0,1-3,2.08,2.83,2.83,0,0,1-2.55-1.79c-.1-.19-.41-.27-.63-.4l.83-1,.51-.59-1.31-.76a3.39,3.39,0,0,0-.41.51,1.33,1.33,0,0,1-1.69.65,2.8,2.8,0,0,1-1.83-3.36l.53.28.28.88c-.52.27-.16.51,0,.75s.43.64.73.77c1,.46,1.67-.07,1.9-1.44l.62.07c.08.79.8.93,1.29.91a2.08,2.08,0,0,0,1.46-.76c.46-.67.8-.84,1.39-.25l0,.75c.5,1.39,1.47,1.22,2.26.72C207.14,79.52,207.32,79.07,207.58,78.73Zm-5.86,3A1.68,1.68,0,0,0,203.58,83a2.28,2.28,0,0,0,1.92-1.74c.14-.87-.67-1-1.14-1.33a2.78,2.78,0,0,0-.77-.32,1.67,1.67,0,0,0-1.5.81l-.87.69Z" style="fill:#a291c4"/><path d="M150.41,66.06l-.1-1.32,0-.75,1.23-1.38c-.65-.46-.94-1-.52-1.67a.3.3,0,0,0,.13,0c.57.27.89.09.95-.54h0c.29-.64.08-1-.61-1.1h0l-.94.16-.14,0-1-.63c.07-.08.12-.2.2-.23a3.25,3.25,0,0,1,3.52,1.14l.11.22h0l0,2.1.19.41-2,.82v.3A1.53,1.53,0,0,1,153,65.49a.52.52,0,0,0,.06.16.21.21,0,0,0,0,.15l0,.23.16.45c0,.57.25.86.85.76l.39,0a.88.88,0,0,1,0,.15,2.62,2.62,0,0,1-2.63.28l-.18-.09-.14-.17Z" style="fill:#ea2a26"/><path d="M158.92,43.18l1.14,1.65,1.71-2,1.37-.21.75.74.87.87-8.6,1.87-.47-2Z" style="fill:#f59578"/><path d="M159.28,72.36l-1.1,1.14-.19.11h0l-.47.18-.15-.21-.17-.38.5-.39a1.78,1.78,0,0,0-.92-2.45l.64-1.4c1.08,0,1.57.82,2.32,1.43-.05-.29-.11-.58-.16-.88.54.09,1.23-.17,1.48.63v0l-.22.29.33,0,1.45.49a1,1,0,0,0,1.72.46c-.31.29-.58.72-1,.84a8.62,8.62,0,0,1-2.15.34.88.88,0,0,1-1-.87s-.52-.1-.67,0S159.38,72.12,159.28,72.36Z" style="fill:#ef4624"/><path d="M206.15,74.75l3.91-3.1,1.07-.86a15.68,15.68,0,0,1-4.24,7.1l-.82-.29c-.15-.44-.29-.88-.44-1.32l.46-1.44Z" style="fill:#008744"/><path d="M199.44,85.12l-1.17-.49-.59-1-.33-1.17.22-.15h0c.65.48,1.26,1,1.94,1.43.19.11.78.2.58-.45l-.07-.93c.11,0,.3,0,.33.11a3.37,3.37,0,0,0,4.85,1.58l1.07-.58L206,84.83a5.15,5.15,0,0,1-2.81,1.4L202,86C201.3,85.33,200.54,84.72,199.44,85.12Z" style="fill:#7361a8"/><path d="M210.56,77.9c-1-1.67-.9-2.65.1-4,.61-.8,1.31-1.53,2-2.29l.34.09.41,2.43-.55.75C212.07,75.89,211.31,76.89,210.56,77.9Z" style="fill:#7bb643"/><path d="M206.07,77.6l.82.29.69.84c-.26.34-.44.79-.78,1-.79.5-1.76.67-2.26-.72.28-.42,1.23,0,1.18-1l-1.21.26c-.59-.59-.93-.42-1.39.25a2.08,2.08,0,0,1-1.46.76c-.49,0-1.21-.12-1.29-.91.73-.36,1.69-.35,2-1.31,0-.06.31,0,.47-.06l2.17-.21C205.09,77.44,205.33,77.84,206.07,77.6Z" style="fill:#b5a7d0"/><path d="M182.52,78.93l-1-.51c-.46-.4-.43-.89.2-1.25l-.12-.76.17.13.75-.84h.21l.07.25c-1,.71.41,1.42,0,2.18l.67.09.63.3.17,1.66.52-.44.84,1.5v.07l0,.07-.54,1.3-.26.13-.38-.61-1.27.12c-.62-.35-.38-.74-.05-1.14l.1,0-.1,0-.24-.45.6-2.22-.86.38Z" style="fill:#ed7e4b"/><path d="M199.19,96.33c-.91-.14-1.84-.22-2.73-.44a9.54,9.54,0,0,1-2-.79c-.46-.23-.74-.75-.36-1.14a1.62,1.62,0,0,1,1.33-.46A34.46,34.46,0,0,1,199.2,95a7.1,7.1,0,0,1,1.14.86Z" style="fill:#f79220"/><path d="M164.76,44.18l-.87-.87-.75-.74,5.37-1.06.56,1.84-1.91.43h-.23l-1.39.33Z" style="fill:#f9ab93"/><path d="M162.22,81.45l-.83-1.39,1,.12.17,1.07c.34-.67.28-1.47,1.14-1.26l.45.23L164,77.87l-1.88.24-.25,0,.41,1.57-1.06.16a3.22,3.22,0,0,1,.87-3.18c.2.08.41.24.6.22a2.28,2.28,0,0,1,2.19.86c.09.11.28.15.43.23-.14.62-.4,1.24.17,1.79-.3.19-.6.39-.9.57a10,10,0,0,1-1.09.64A13.07,13.07,0,0,1,162.22,81.45Z" style="fill:#e95b33"/><path d="M203.82,51.29a10,10,0,0,0-1,1.3,1.21,1.21,0,0,0,.1.9c.13.3.43.53.6.83.43.75.23,1.09-.64,1.14-1,.06-2.6-1.12-2.64-2.1,0-.21.44-.65.67-.64a1.06,1.06,0,0,0,1.22-.77c.18-.44.68-.75,1-1.11l.71.17Z" style="fill:#00763d"/><path d="M143.7,38.93a6.67,6.67,0,0,1,5.49-.42c.05.75.11,1.5.16,2.26-.64.14-.38.73-.54,1.12-1.13-.22-.8-1.2-1-1.89.14,0,.28,0,.35,0a1.22,1.22,0,0,0,.24-.34c-1.31-1.07-2-1.22-2.79-.61l1.21,1.1-.85.34L145.3,40Z" style="fill:#ea2a26"/><path d="M207.94,79.79a.19.19,0,0,0,.12-.11l3.09-.53.33-.11c.66-.26,1.31-.55,2-.77.23-.08.66-.09.75,0a2.28,2.28,0,0,1,.33,1.08c0,.13-.37.38-.59.41-2,.26-4,.49-5.94.73l-.15-.66h-.06l.06,0S207.94,79.84,207.94,79.79Z" style="fill:#b55c27"/><path d="M159.58,69.51l.16.88c-.75-.61-1.24-1.48-2.32-1.43l-.46-.54-.36-.25c-.8-.6-1.4-.31-1.92.91L153,70.86l.39-2,2.12-1.59a3.36,3.36,0,0,1,3.6,1.33c.12.17.38.25.58.38Z" style="fill:#ea2a26"/><path d="M164.13,75.59a2.9,2.9,0,0,1,2.76.89,3.54,3.54,0,0,1-1,5.38l-1.87.4,2-2.12.43-.1.75-1.15,0-.47L167,78l-.8-.38v0l-.25,0v0c-.41-.49-.81-1-1.23-1.48A8.09,8.09,0,0,0,164.13,75.59Z" style="fill:#ea2a26"/><path d="M207.87,79.86l.15.66c-.36.4-.18,1.32-1.16,1.19-.1,0-.31.67-.43,1a5.55,5.55,0,0,0-.15.73l-1.07.58a3.37,3.37,0,0,1-4.85-1.58c0-.07-.22-.07-.33-.11s-.19-.32-.28-.48l.43-.23c.22.13.53.21.63.4a2.83,2.83,0,0,0,2.55,1.79,3.14,3.14,0,0,0,3-2.08L205.8,81Z" style="fill:#8d7cb8"/><path d="M159.28,72.36c.1-.24.13-.56.31-.69s.66,0,.67,0a.88.88,0,0,0,1,.87,8.62,8.62,0,0,0,2.15-.34c.37-.12.64-.55,1-.84l.56-.76h0a2.88,2.88,0,0,1-3,3.28l-.77,0A2.86,2.86,0,0,1,159.28,72.36Z" style="fill:#ea2a26"/><path d="M159.08,41.11l-1.76-2.86c2-.78,3.4-.36,4.22,1.29Z" style="fill:#008744"/><path d="M144.64,55.32c.44-.3.74-1,1.47-.6a2.15,2.15,0,0,1,.35,2.25c-.44.94-1.43.57-2.18,1.15l1.15,1.16-.31.22-.14,0C143.64,58,143.54,56.75,144.64,55.32Z" style="fill:#e4233c"/><path d="M149.35,40.77l-.16-2.26c-.54-1.65-1.08-3.29-1.61-4.95a1.78,1.78,0,0,1,0-.46c.25.16.6.28.71.5.38.8.65,1.63,1,2.44.08.19.3.33.45.49a11.57,11.57,0,0,1,.27,1.13c.13,1,.21,1.92.31,2.88l-.16.71C149.56,41.67,149.58,41,149.35,40.77Z" style="fill:#469f47"/><path d="M151.5,68.3a14.71,14.71,0,0,1-.52,1.45,3.64,3.64,0,0,1-.61.76.77.77,0,0,1-.38.25,2.89,2.89,0,0,1-3.09-2.52l.51.29.68-.52c.4.6.77,1.24,1.67.84l.9.21.8-.77Z" style="fill:#ea2a26"/><path d="M148.17,59.55l.5-.26-.09.73c.78.11,1.52.43,1.68,1.23a1.59,1.59,0,0,1-.87,1.86l-.73.16-.94-1.9Z" style="fill:#e4233c"/><path d="M159.08,41.11l2.46-1.57a2.59,2.59,0,0,1,.31,2.52l-1,.44-1,.46c-.14-.33-.28-.65-.41-1Z" style="fill:#469f47"/><path d="M153,70.86l1.72-1.78.28.47.25.39c.11.28.68.56,0,.86,0,.07-.09.17-.07.23.32.84.25,1.42-.86,1.34l0,.39-.34.29-.4-.57-.36-.6Z" style="fill:#ef4624"/><path d="M150.34,40.54c-.1-1-.18-1.92-.31-2.88a11.57,11.57,0,0,0-.27-1.13c0-.64-.11-1.28-.16-1.92l1.16,1.13a2.56,2.56,0,0,0-.12,1c.33,1,.74,2,1.12,3C151.43,40.31,151.06,40.74,150.34,40.54Z" style="fill:#008744"/><path d="M147.41,68.53l-.51-.29c-.08-1.81,1.56-3,3.51-2.18l1.15,1.32c0,.1-.06.21-.08.31s-.09.18-.13.26l-.26.09-.27-.23c-.43-.54-.82-.47-1.17.08l-.31.16-1-1.76A1.69,1.69,0,0,0,147.41,68.53Z" style="fill:#e4233c"/><path d="M174.53,76.4c-.39.25-.68.26-.68-.31l-.32.65-.63,0-.28-.35c-.41.45-1,.8-1.12,1.28-.26.73-.41,1.25-1.26.61-.09-.07-.28,0-.43,0,0-.27,0-.54.05-.81s.21-.4.31-.6c.59-.5,1.73.12,2-1l.83,0,1.54-.51Z" style="fill:#ed7e4b"/><path d="M182.52,78.93l.15-.06c.09.61.17,1.23.26,1.84l.24.45h0c-.33.4-.57.79.05,1.14-.1.19-.31.42-.27.57a10.72,10.72,0,0,0,.51,1.33l-1.26.31c-.07-1.12-.23-2.24-.19-3.35C182,80.42,181.78,79.54,182.52,78.93Z" style="fill:#ef4624"/><path d="M211.48,79l-.33.11-.59-1.25c.75-1,1.51-2,2.27-3l.55-.75a3.35,3.35,0,0,1-.69,2.78A18.56,18.56,0,0,0,211.48,79Z" style="fill:#51ac47"/><path d="M180.63,47.19l.33-.53,2.48-2,.7,1.59-.79.44c-.44-.3-.88-.71-1.44-.33s-.34.79-.07,1.21l-1,.74Z" style="fill:#f79220"/><path d="M167.16,43.78l1.91-.43.65,2.21.12.93c-.21-.06-.49-.06-.61-.19C168.52,45.48,167.85,44.62,167.16,43.78Z" style="fill:#f26859"/><path d="M164.13,75.59a8.09,8.09,0,0,1,.61.56c.42.48.82,1,1.23,1.48l-.27.14-.12-.07v.14l-.24.16c-.15-.08-.34-.12-.43-.23a2.28,2.28,0,0,0-2.19-.86c-.19,0-.4-.14-.6-.22l1.63-1,.34-.05Z" style="fill:#ef4624"/><path d="M166,80.14l-2,2.12-.87-.17-.36-.17a.11.11,0,0,1-.13,0h0l-.42-.45a13.07,13.07,0,0,0,1.29-.45,10,10,0,0,0,1.09-.64c.3-.18.6-.38.9-.57l.44.18Z" style="fill:#ef4624"/><path d="M172.9,76.72l.63,0L171.34,80c-.16.23-.3.46-.45.7l-.77-.82C171.41,79.12,172,77.76,172.9,76.72Z" style="fill:#ef4624"/><path d="M151.76,39.78c-.38-1-.79-2-1.12-3a2.56,2.56,0,0,1,.12-1,3.8,3.8,0,0,1,1.13,4A.15.15,0,0,1,151.76,39.78Z" style="fill:#469f47"/><path d="M170.17,76.83c-.1.2-.2.4-.31.6l-2.65-.91,3.32-.93.24,0c0,.06,0,.13-.07.19C170.52,76.12,170.35,76.48,170.17,76.83Z" style="fill:#b5c9a5"/><path d="M148.17,59.55l-.45,1.82A3.66,3.66,0,0,1,145,59.54l.14,0A2.54,2.54,0,0,0,148.17,59.55Z" style="fill:#b5c9a5"/><path d="M185.13,82.67l.54-1.3a15.65,15.65,0,0,1,1.68.15c.11,0,.16.37.25.57l-1.4,1-.28,0Z" style="fill:#7361a8"/><path d="M172.9,76.72c-.93,1-1.49,2.4-2.78,3.13l-.31-1.61c.15,0,.34,0,.43,0,.85.64,1,.12,1.26-.61.17-.48.71-.83,1.12-1.28Z" style="fill:#e95b33"/><path d="M149.6,34.61c.05.64.11,1.28.16,1.92-.15-.16-.37-.3-.45-.49-.36-.81-.63-1.64-1-2.44-.11-.22-.46-.34-.71-.5l1.16-.4Z" style="fill:#7bb643"/><path d="M183.46,84.21a10.72,10.72,0,0,1-.51-1.33c0-.15.17-.38.27-.57l1.27-.12.38.61Z" style="fill:#e95b33"/><path d="M163.13,82.09l.87.17,1.87-.4c.06.43.12.86.19,1.42a4,4,0,0,1-3.09-1.1Z" style="fill:#b5c9a5"/><path d="M143.7,38.93,145.3,40a4.33,4.33,0,0,0-3.7.86h-.42Z" style="fill:#ef4624"/><path d="M163.74,80c-.86-.21-.8.59-1.14,1.26l-.17-1.07-1-.12-.15-.19,1.06-.16-.41-1.57.25,0,.68.69Z" style="fill:#00763d"/><path d="M157.37,73.58l.15.21c.13.49.26,1,.4,1.46a3.62,3.62,0,0,1-2.67-1.2l.3-.15.5,0Z" style="fill:#b5c9a5"/><path d="M203.91,51l-.71-.17v0l3.08-2a2.51,2.51,0,0,1-1.54,1.81C204.45,50.71,204.18,50.87,203.91,51Z" style="fill:#469f47"/><path d="M205.69,52.67l-.36.21h0c-.54.18-1.09.38-1.64.52a1,1,0,0,1-.27-.58c0-.14.27-.3.44-.39a9.12,9.12,0,0,1,.95-.45Z" style="fill:#008744"/><path d="M203.16,86.23a5.15,5.15,0,0,0,2.81-1.4l.4.38-1,1-2.1.31A2,2,0,0,1,203.16,86.23Z" style="fill:#b5a7d0"/><path d="M155.47,67.24l-2.12,1.59c-.49-.4-1-.8-1.48-1.19a2.64,2.64,0,0,0,2.64-.28l.3-.17.36-.38Z" style="fill:#f9ab93"/><path d="M202.43,50.5,201.51,52c-.18-.19-.49-.4-.46-.5s.32-.4.51-.62l-.65-1Z" style="fill:#008744"/><path d="M181.84,47.59c-.27-.42-.41-.88.07-1.21s1,0,1.44.33l-1.21.72Z" style="fill:#faaa1a"/><path d="M148.66,63.27l.73-.16.53.63.32.23,0,0,0,.75Z" style="fill:#e95b33"/><path d="M155.55,73.9l-.3.15a.12.12,0,0,1-.13,0l-.41-.21-.7-.79.34-.29,1-.1Z" style="fill:#e95b33"/><path d="M205.4,86.17l1-1,.42,1.46-1.14-.28Z" style="fill:#a291c4"/><path d="M157.92,75.25c-.14-.49-.27-1-.4-1.46l.47-.18a4.25,4.25,0,0,1,.48.92C158.6,75,158.58,75.38,157.92,75.25Z" style="fill:#d5cee6"/><path d="M184,87.77l.71,2.88Z" style="fill:#fcbc15"/><path d="M153.25,71.88l.36.6Z" style="fill:#e95b33"/><path d="M151.35,68l.13-.26a.43.43,0,0,0,.11.12l-.09.49h0Z" style="fill:#ea2a26"/><path d="M154.71,73.84l.41.21Z" style="fill:#b5c9a5"/><path d="M163.13,82.09l-.16.09c-.07-.09-.14-.17-.2-.26Z" style="fill:#e95b33"/><path d="M164.08,75.6l-.34.05.32-.11Z" style="fill:#ea2a26"/><path d="M151.59,67.81a.43.43,0,0,1-.11-.12c0-.1.05-.21.08-.31l.14.17C151.67,67.64,151.63,67.72,151.59,67.81Z" style="fill:#f9ab93"/><path d="M162.64,81.9h0Z" style="fill:#e95b33"/><path d="M158,73.61l.19-.11Z" style="fill:#d5cee6"/><path d="M185.21,91.2l.1.12Z" style="fill:#fcbc15"/><path d="M184.31,62.8c-.44.41-.36.69.19.92a8.91,8.91,0,0,1,1.05.57c-.79.84-1.58,1.69-2.38,2.53l-.33-1.36c-.53.1-1,.37-1,1a2.32,2.32,0,0,0,2.86,1.72l-1.09-.89,3-2.21,2.31,3.49,0,.23v0c-.22.29-.48.56-.67.86-.34.53-.61,1.11-1,1.62-.52.72-1.1,1.4-1.68,2.13a1.74,1.74,0,0,0-2.17.82l-.3-.29-.15.38-.66.12-1.65.34-.23-.06a15.39,15.39,0,0,0-1.65-.77,6.27,6.27,0,0,1-3.07-2,5.56,5.56,0,0,0,.61-4.73l-.16-.54a1.09,1.09,0,0,0-.08-.15c0-.2.05-.41.08-.62l-.39-1.83,3.43-1.29a15.46,15.46,0,0,1,2.36,0,2.67,2.67,0,0,0,1.88-.36,8.21,8.21,0,0,1,1.31-.49Zm-3,5.25-.88-.52.47-.73h-.25l-.13-1.61-.74.11-.23-.26,1.4-.79a4.45,4.45,0,0,0-3.55.9l.38.44-.73.79,1.91.48-2.31,1.29,1.62-.13v.22l-1.31,1.14a4.15,4.15,0,0,1,2.23.26,10.63,10.63,0,0,0,2.71-.13L180,68.34l1.24-.27.11,0Z" style="fill:#f79220"/><path d="M203,66.55A17.82,17.82,0,0,0,205,64.86,7.61,7.61,0,0,0,207,60.05a10.63,10.63,0,0,1,.25-1.25,19.27,19.27,0,0,1,1.45,1.55,1,1,0,0,1-.27,1.63,1.74,1.74,0,0,0-.62,1.3,4.78,4.78,0,0,0,.76,2c.44.69.43.87-.25,1.36a9.1,9.1,0,0,0-1.22,1.26,4.73,4.73,0,0,0-.29.6c-.42,1.55-.72,3.16-2.18,4.17l-1.83,0-1.16,1.2-2-.33c.13-.55.28-1.09.38-1.64.11-.7.14-1.42.3-2.11a.83.83,0,0,1,.6-.52c.55,0,.69-.28.78-.72s.17-.58.26-.87Z" style="fill:#469f47"/><path d="M184.71,62a8.21,8.21,0,0,0-1.31.49,2.67,2.67,0,0,1-1.88.36,15.46,15.46,0,0,0-2.36,0,2.67,2.67,0,0,0-.77-.14c-1,.13-2,.3-3,.45l-.88-3.09c.51.45,1.09.12,1.6.06a11.85,11.85,0,0,0,8.06-4.49,13.74,13.74,0,0,0,1-1.81,3.34,3.34,0,0,1,.58-.61c.17,1.24.35,2.47.53,3.71-.07.36-.13.73-.2,1.09A9.18,9.18,0,0,1,184.71,62Z" style="fill:#faaa1a"/><path d="M193.1,67.46a13.26,13.26,0,0,0,2.3.42,15.81,15.81,0,0,0,5.92-1.41l.12.93c-.31,1-1,1.2-2,1.2-.53,0-1,.45-1.58.7a9.93,9.93,0,0,0,.66,1.14c1,1.27.71,2.3-.84,2.81l-.57.19a2.76,2.76,0,0,0-2.86.59,3.57,3.57,0,0,1-.66.29c-.44.2-.86.42-1.29.63-.24.29-.47.59-.71.89h-2.2a1.12,1.12,0,0,1,.71-1.53,1.53,1.53,0,0,0,.95-1.89c-.06-.3-.1-.61-.16-.94l2.18-1.21-1.67-2.57Z" style="fill:#469f47"/><path d="M184.71,62a9.18,9.18,0,0,0,1.34-4c.07-.36.13-.73.2-1.09a10.4,10.4,0,0,1,2-.68,2.14,2.14,0,0,0,1.92-2c.36-1.72.86-2,2.56-1.43l.82.29c.74.27,1.46.57,2.1-.23a.78.78,0,0,1,.64-.22c1.06.2,2.12.45,3.18.69l0,.41-2.05,0a2.6,2.6,0,0,0,.1.48c.1.24.23.48.34.72-.29.1-.59.31-.86.28a13.86,13.86,0,0,1-2-.48c-1.09-.33-1.38-.11-1.26,1,.09.8-.18,1.09-1,1.18a8.3,8.3,0,0,0-2.19.37c-.41.17-.69.73-1,1.16-.14.22-.12.55-.24.81-.3.67-.76,1.1-1.55.72s-1.22,0-1.4.83a2.27,2.27,0,0,1-2.08,2C184.44,62.54,184.57,62.27,184.71,62Z" style="fill:#008744"/><path d="M193.1,67.46l-1.69.23,1.67,2.57-2.18,1.21c.06.33.1.64.16.94a1.53,1.53,0,0,1-.95,1.89,1.12,1.12,0,0,0-.71,1.53l-.14.15-.61.31-.17-.27.36-1A8.22,8.22,0,0,0,189,69c.86-.68,1.72-1.34,1.53-2.67,0-.17.54-.57.86-.62,1.71-.26,1.41-.42,1.13-1.49l1.25.49a7.6,7.6,0,0,0-.06,1.5A1,1,0,0,1,193.1,67.46Z" style="fill:#00763d"/><path d="M189,69a8.22,8.22,0,0,1-.15,6.07l-.36,1-.89-.33-2.49.16-.44-1.61-.24,0-.26.78-.78-.81a1.74,1.74,0,0,1,2.17-.82c.58-.73,1.16-1.41,1.68-2.13.37-.51.64-1.09,1-1.62.19-.3.45-.57.67-.86Z" style="fill:#ee7124"/><path d="M193.76,64.7l-1.25-.49c-.38-.67-.12-1.09.55-1.32.44-.15.88-.28,1.32-.41a1.7,1.7,0,0,0,1.45-2,11.69,11.69,0,0,1,0-1.45A1.22,1.22,0,0,1,197,57.73a5.08,5.08,0,0,0,1.54-.51c.16-.08.24-.4.28-.62.08-.41,0-1.1.17-1.21a1.39,1.39,0,0,1,1.79.18c-.51.76-.59,1.86-1.81,2.08-.23,0-.48.54-.53.86a6.37,6.37,0,0,0,.11,1.29c.09,1.29,0,1.33-1.27,1.64-.68.16-1.41.46-1.36,1.33a1.39,1.39,0,0,1-1.25,1.63C194.35,64.47,194.06,64.6,193.76,64.7Z" style="fill:#008744"/><path d="M201.44,67.4l-.12-.93a3.69,3.69,0,0,0-.35-.72c-.55-.69-.43-1.25.37-1.69.5-.27,1-.59,1.47-.89l-1-1.41s0,0-.06-.18l1.05-.91a2.81,2.81,0,0,0,.52-.44c.28-.42.51-.87.76-1.3-.45-.24-.91-.45-1.34-.71s-.85-.53-.81-.64a7.62,7.62,0,0,1,.81-1.36c.24.17.62.28.71.5a4.48,4.48,0,0,0,1.47,2,1.17,1.17,0,0,1,.25,1.07,3.74,3.74,0,0,0-.26,2.82.75.75,0,0,1-.18.6,3.45,3.45,0,0,1-.89.68c-1.52.79-1.63,1.09-.86,2.69-.34.37-.67.75-1,1.13Z" style="fill:#008744"/><path d="M207.08,67.86a9.1,9.1,0,0,1,1.22-1.26c.68-.49.69-.67.25-1.36a4.78,4.78,0,0,1-.76-2,1.74,1.74,0,0,1,.62-1.3,1,1,0,0,0,.27-1.63,19.27,19.27,0,0,0-1.45-1.55,3.81,3.81,0,0,0-2.18-2.28c-.28-.09-.48-.44-.8-.75,1.36-.62,2.05.52,3,.83a5.78,5.78,0,0,1,2,3.44,1.41,1.41,0,0,0,.42.84c.72.6.41,1.19.14,1.86a3.59,3.59,0,0,0-.07,1.19,2.71,2.71,0,0,1,0,.75c-.17.6-.49,1.18,0,1.81.07.08,0,.33-.1.47-.36.65-.74,1.29-1.12,1.93l-.56-.44C207.63,68.25,207.36,68.05,207.08,67.86Z" style="fill:#008744"/><path d="M185.75,52.82l-.15-.58A18.36,18.36,0,0,1,191,50.65a9,9,0,0,0,1.81-.56,2.17,2.17,0,0,1,1-.2c1.65.44,3.29,1,4.92,1.46.21.07.36.33.5.46-1.06,0-2.1,0-3.14-.08a2.61,2.61,0,0,1-1.18-.38,2.63,2.63,0,0,0-2.46-.27c-1.11.39-2.26.68-3.38,1-.22.07-.51.11-.63.26a1.79,1.79,0,0,1-2.12.5A2.84,2.84,0,0,0,185.75,52.82Z" style="fill:#008744"/><path d="M183.17,66.82c.8-.84,1.59-1.69,2.38-2.53l1.53-1.07.75,1.21-1.23.68-3,2.21Z" style="fill:#b55c27"/><path d="M188.88,68.83l0-.23Z" style="fill:#ee7124"/><path d="M174.48,60.06c.29,1,.59,2.06.88,3.09.06.24.11.48.17.72l-.71.37-1.36-1.53a20.79,20.79,0,0,0-.71-4.44,11,11,0,0,0-3.32-4.77,4.36,4.36,0,0,1-.72-1.21l1.38-.3c0,.21,0,.49.11.63.93,1.05,1.89,2.07,2.84,3.1.33,1.08.66,2.17,1,3.24C174.16,59.34,174.33,59.69,174.48,60.06Z" style="fill:#e95b33"/><path d="M170.09,52l-1.38.3-.78.11a3.5,3.5,0,0,0-.6-.56c-.58-.34-1.2-.63-1.8-.94l3.95-.82,1.22-.3.17,0c.71-.15.72.47.92.85a6.1,6.1,0,0,1,.31,1Z" style="fill:#f9ab93"/><path d="M170.09,52l2-.34c.31,1.35.62,2.71.94,4.07-.95-1-1.91-2-2.84-3.1C170.08,52.48,170.13,52.2,170.09,52Z" style="fill:#f26859"/><path d="M178.27,48l1.21.21a4,4,0,0,0-.53.66,2.8,2.8,0,0,0-.17.76,2.09,2.09,0,0,0,.67-.11,5.2,5.2,0,0,0,.76-.57,2,2,0,0,1,.3.6c.05.32.12.83,0,1a3.55,3.55,0,0,1-1.21.34C178.39,50.08,177.51,49.32,178.27,48Z" style="fill:#faaa1a"/><path d="M170.87,49.83l-.17,0A16.37,16.37,0,0,0,167,44.61c-.35-.3-.33-.54-.06-.84h.23c.69.84,1.36,1.7,2.07,2.52.12.13.4.13.61.19Z" style="fill:#e95b33"/><path d="M180.21,48.94a5.2,5.2,0,0,1-.76.57,2.09,2.09,0,0,1-.67.11,2.8,2.8,0,0,1,.17-.76,4,4,0,0,1,.53-.66l1.15-1,.21,1.14Z" style="fill:#b55c27"/><path d="M178.27,48c-.76,1.33.12,2.09,1,2.84a2.47,2.47,0,0,1-2-1.5C176.93,48.61,177.25,48.23,178.27,48Z" style="fill:#f79220"/><path d="M153.09,59.75a3.25,3.25,0,0,0-3.52-1.14c-.08,0-.13.15-.2.23a.28.28,0,0,1-.11.08c0-.09-.17-.23-.15-.28a2.58,2.58,0,0,0-.54-3.53,1.06,1.06,0,0,1-.23-1.41c1.11-2.46,3.26-3.77,5.54-4.88a5.53,5.53,0,0,1,3.5-.42,4.34,4.34,0,0,1,3.81,3.3,3.83,3.83,0,0,1-.17,1.2c-.37.75-.87,1.43-1.31,2.14l-.18.48,2.34,1.07a13.25,13.25,0,0,1,1,2.66c.23,1.43-.69,2.49-1.59,3.49l-.51.5-.16.12a.2.2,0,0,1-.13.08.25.25,0,0,1-.14.08c-.59-.47-1.17-1-1.8-1.39-1.12-.75-1.65-2.32-3.29-2.33a9.86,9.86,0,0,0,.76-.69c.62-.67.54-1.56-.16-1.87l.8-.89a10.07,10.07,0,0,0-1.07-.09,1.25,1.25,0,0,0-1.28,1c-.23.19-.68.44-.65.58a4.41,4.41,0,0,0,.61,1.47c.16.25.55.35.84.52l-2,.11h0Z" style="fill:#fff3d1"/><path d="M145.94,40.44l.85-.34L145.58,39c.78-.61,1.48-.46,2.79.61a1.22,1.22,0,0,1-.24.34c-.07.06-.21,0-.35,0,.23.69-.1,1.67,1,1.89a.2.2,0,0,1,0,.11l.08.17h0l.58.31,3.12,1c.27.1.53.22.81.3,1.66.48,1.92,1,1.36,2.51A11.72,11.72,0,0,1,153,46c-2.24-.69-4.54-1.31-5.68-3.71-.08-.17-.37-.24-.57-.35L146,40.59Z" style="fill:#ef4624"/><path d="M145.94,40.44l.1.15c.06.63.11,1.26.19,1.88a2,2,0,0,0,.21.53l0,.54-.08.23h0a5,5,0,0,1-2.24,2.08,2.53,2.53,0,0,1-3.63-1.21,3.18,3.18,0,0,1,.46-2.73c.19-.35.42-.69.63-1a4.33,4.33,0,0,1,3.7-.86Zm-1.87,4.83a3,3,0,0,0,1.66-2.12c.34-1.41-.39-2.26-1.85-2.24a2.94,2.94,0,0,0-2.56,2.1,2.48,2.48,0,0,0-.07,1.47C141.78,45.77,142.78,46,144.07,45.27Z" style="fill:#ed7e4b"/><path d="M165.53,50.9c.6.31,1.22.6,1.8.94a3.5,3.5,0,0,1,.6.56l-5.69,1.21c.35-.61.72-1.21,1-1.84.06-.12-.08-.34-.12-.51Z" style="fill:#f59578"/><path d="M145.43,59.28l-1.15-1.16c.75-.58,1.74-.21,2.18-1.15a2.15,2.15,0,0,0-.35-2.25c.26,0,.51,0,.77-.06.81,0,1.14.59.9,1.64,1,.12,1.34.46,1.11,1.26-.07-.12-.11-.29-.22-.36a9.3,9.3,0,0,0-.84-.41c-.11.28-.22.56-.32.85a3.06,3.06,0,0,0,0,.32l-.55-.71v0c-1,.73-.35,1.49.12,2.44Z" style="fill:#f26859"/><path d="M166.93,43.77c-.27.3-.29.54.06.84a16.37,16.37,0,0,1,3.71,5.17l-1.22.3a9.13,9.13,0,0,0-.55-1.84,13.36,13.36,0,0,0-3.17-3.62c-.13-.11-.15-.35-.22-.52Z" style="fill:#ef4624"/><path d="M158.92,43.18l-3.23.83-1.38-2.2a6.81,6.81,0,0,1,3.55.38Z" style="fill:#fffffe"/><path d="M152.61,43.49l-3.12-1-.58-.31h0l-.08-.17a.2.2,0,0,0,0-.11c.17-.39-.09-1,.55-1.12.23.24.21.9.83.48.81.46,1.76.72,2.24,1.61A3.28,3.28,0,0,1,152.61,43.49Z" style="fill:#b55c27"/><path d="M149.26,58.92a.28.28,0,0,0,.11-.08l1,.63c-.23.68-.19,1.23.61,1.47-.42.7-.13,1.21.52,1.67L150.28,64l0,0-.32-.23-.53-.63a1.59,1.59,0,0,0,.87-1.86c-.16-.8-.9-1.12-1.68-1.23l.09-.73Z" style="fill:#f26859"/><path d="M157.86,42.19a6.81,6.81,0,0,0-3.55-.38c-.3,0-.6,0-.9-.07a1.91,1.91,0,0,1,0-.45c.92-.18,1.82-.41,2.75-.54a2.42,2.42,0,0,1,2.19.81Z" style="fill:#469f47"/><path d="M159.71,55c.44-.71.94-1.39,1.31-2.14a3.83,3.83,0,0,0,.17-1.2l1.69-.32A5.75,5.75,0,0,1,159.71,55Z" style="fill:#f59578"/><path d="M159.71,55a5.75,5.75,0,0,0,3.17-3.66l.28-.12c0,.17.18.39.12.51-.32.63-.69,1.23-1,1.84l-1.14,1.17-1.57.74Z" style="fill:#7bb643"/><path d="M147.46,58a3.06,3.06,0,0,1,0-.32c.1-.29.21-.57.32-.85a9.3,9.3,0,0,1,.84.41c.11.07.15.24.22.36h0l-.7.63-.38,0-.24-.08A.69.69,0,0,0,147.46,58Z" style="fill:#f59578"/><path d="M161.07,49.36l1.56-1C162.58,49.59,162.23,49.86,161.07,49.36Z" style="fill:#441c13"/><path d="M166.26,48.53a10.25,10.25,0,0,1-.23,1.23c0,.05-.38,0-.58,0l.27-1.32Z" style="fill:#441c13"/><path d="M146.44,43a2,2,0,0,1-.21-.53c-.08-.62-.13-1.25-.19-1.88l.75,1.38C146.67,42.31,146.56,42.66,146.44,43Z" style="fill:#e95b33"/><path d="M148.19,58.19l.7-.63C148.89,58,148.86,58.47,148.19,58.19Z" style="fill:#f26859"/><path d="M146.39,43.77l.08-.23.1.14Z" style="fill:#ee7124"/><path d="M147.57,58.09l.24.08Z" style="fill:#f26859"/><path d="M202.49,89.74l-1.28.51-1.46-.73.65-.92c-.68-.43-.8-1.61-1.79-1.52a5.2,5.2,0,0,0-1.61.75c-1.06-.26-1.49-1-1.36-2.32.78.14,1.54.29,2.32.4a11.55,11.55,0,0,1,1.78.15,2.18,2.18,0,0,1,1.12.81C201.46,87.79,202,88.78,202.49,89.74Z" style="fill:#7bb643"/><path d="M197.57,82.32l-.22.15c-.36.4-1,.64-.72,1.37l-.67.39-1.34.3c-.73,0-1.05-.55-1.51-.93l.48-.23a1,1,0,0,0,1.47.14h0l.47.15,1-.63c-.41-.25-.69-.39-.94-.57a1.89,1.89,0,0,0-1.74-.33c-1.48.39-3.19,0-3.75-1.43l-.37-.38.48-.87a3.11,3.11,0,0,0,2.4,1.73c1.12.21,1.73-.78,2.46-1.65a3.69,3.69,0,0,1,.35,1.16c-.1.89.42,1,1.09,1Z" style="fill:#8d7cb8"/><path d="M192.2,92c-1.1,1.18-2.32.59-3.44.57a1.78,1.78,0,0,1-1.8-1c-.31-.67,0-1.26.7-1.14,1.33.23,2.62.59,3.92.94C191.81,91.43,192,91.73,192.2,92Z" style="fill:#f79220"/><path d="M202.54,94.11l.51-.88c.65-.38.93.24,1.17.56a2.55,2.55,0,0,0,1.67.9,2,2,0,0,1,.89.67s-.35.65-.46.62C204.92,95.66,203.49,95.35,202.54,94.11Z" style="fill:#f79220"/><path d="M197,91l-.48-2.32.57-.7c.12.07.29.11.35.21a2.48,2.48,0,0,0,1.91,1.19c-.07,1.1-.44,1.42-1.55,1.42A3.47,3.47,0,0,0,197,91Z" style="fill:#7bb643"/><path d="M193.11,83.6c.46.38.78,1,1.51.93,0,.16-.07.33-.1.49s-.09.57-.13.85l-.86-.37a5.79,5.79,0,0,1-1.12-1A2.53,2.53,0,0,0,190,83.34c-.23-.34-.45-.69-.67-1l.66,0,2,.84Z" style="fill:#fcbc15"/><path d="M199.34,89.36a2.48,2.48,0,0,1-1.91-1.19c-.06-.1-.23-.14-.35-.21l0-.07-.05-.06a5.2,5.2,0,0,1,1.61-.75c1-.09,1.11,1.09,1.79,1.52-.22.3-.43.61-.65.92h0l-.23-.09Z" style="fill:#469f47"/><path d="M190,83.34a2.53,2.53,0,0,1,2.39,1.14,5.79,5.79,0,0,0,1.12,1s-.05,0-.06.07l-.22.14-1.31-.24c.27-.77-.49-.89-.84-1.2a.88.88,0,0,0-1.34.2l-1.36-.61-.19-.67.65,0Z" style="fill:#7bb643"/><path d="M190.52,86.48c-.53-.45-1-.93-.61-1.71l1.73.86c.19.47.06.71-.47.72A3.74,3.74,0,0,0,190.52,86.48Z" style="fill:#7bb643"/><path d="M191.64,85.63l-1.73-.86-.15-.3a.88.88,0,0,1,1.34-.2c.35.31,1.11.43.84,1.2Z" style="fill:#469f47"/><path d="M199.44,85.12c1.1-.4,1.86.21,2.6.89l-.43.64Z" style="fill:#a291c4"/><path d="M196,84.23l.67-.39,1.05-.2.59,1Z" style="fill:#b5a7d0"/><path d="M201.61,86.65,202,86l1.12.22a2,2,0,0,0,.14.25C202.78,86.91,202.25,87.38,201.61,86.65Z" style="fill:#8d7cb8"/><path d="M193.25,85.71l.22-.14Z" style="fill:#fcbc15"/><path d="M175.67,72a6.27,6.27,0,0,0,3.07,2,15.39,15.39,0,0,1,1.65.77l-1.53.85-.78.42c-.71-.32-.86-1.46-1.9-1.3L174.83,74a2.67,2.67,0,0,0,0-.4c0-.18-.09-.34-.13-.51Z" style="fill:#ee7124"/><path d="M178.86,75.58l1.53-.85.23.06.17.29c.05.25.1.72.16.72a5.15,5.15,0,0,0,1-.16l.57.06-.75.84-.17-.13.12.76a4.46,4.46,0,0,0-1.2-.1c-.68.12-1.33.35-2.24.6Z" style="fill:#e95b33"/><path d="M174.53,76.4l0-1.06-1.54.51c.3-.62.6-1.22,1.46-1.16.09,0,.2-.18.31-.28l1.53.58.69,1.23-.16,1.59Z" style="fill:#e95b33"/><path d="M177,76.22,176.33,75l-.15-.29c1-.16,1.19,1,1.9,1.3l-.66.73Z" style="fill:#b55c27"/><path d="M207.26,91.47c-.68.71-.68.71-2.19.4l.54-2.23L205,88l.32-.29c.56.28,1.11.58,1.67.84a2.58,2.58,0,0,0,.69.16,1.08,1.08,0,0,1,1,1.45,1,1,0,0,0,.06.55c.15.46.33.91.5,1.38a1.53,1.53,0,0,1-2-.66l.69-.27a2,2,0,0,0-1.23-2.13c-.63.86-.61,1.23.07,1.9C207,91.12,207.11,91.3,207.26,91.47Z" style="fill:#7bb643"/><path d="M199.34,89.36l.19.06.23.09h0l1.46.73c-.24.26-.44.72-.71.76a24.85,24.85,0,0,1-2.87.19A2.12,2.12,0,0,1,197,91a3.47,3.47,0,0,1,.8-.2C198.9,90.78,199.27,90.46,199.34,89.36Z" style="fill:#faaa1a"/><path d="M201.62,73.87l1.16-1.2.16.29c-.1.31-.85.42-.27.93a1.35,1.35,0,0,0,1.55.81c.35,0,.67-.59,1-1a1.86,1.86,0,0,0,.21-.56l.3.07c.09.26.18.52.26.79a2.53,2.53,0,0,1-2.72,1.29c-.24,0-.71-.29-.57.35l-.28.18c-.31.16-.6.34-.91.49a1.87,1.87,0,0,1-2.73-1.15,3,3,0,0,0-.41-.54L197.6,76l-1.29.88-.19-1.08,1.71-1.55.86.1c.2.23.4.45.59.68a1.53,1.53,0,0,0,2,.5C201.82,75.07,202.09,74.54,201.62,73.87Z" style="fill:#a291c4"/><path d="M205.69,73.26l-.3-.07-.78-.56c1.46-1,1.76-2.62,2.18-4.17a4.73,4.73,0,0,1,.29-.6c.28.19.55.39.82.59l.56.44c.29,1-.44,1.32-1.16,1.58s-1.31.41-.83,1.36c.08.16-.1.48-.22.69A7.57,7.57,0,0,1,205.69,73.26Z" style="fill:#00763d"/><path d="M202.66,75.69c-.14-.64.33-.38.57-.35A2.53,2.53,0,0,0,206,74.05c.07.23.14.47.2.7l-.06.09a2.31,2.31,0,0,1-2,1.06A9.93,9.93,0,0,1,202.66,75.69Z" style="fill:#8d7cb8"/><path d="M161.1,54.78l1.14-1.17,5.69-1.21.78-.11a4.36,4.36,0,0,0,.72,1.21,11,11,0,0,1,3.32,4.77,20.79,20.79,0,0,1,.71,4.44l-1.73-1.11c-1.82-1.33-5-1.74-6.84,0l-1,1.26-.32.27c-.73-.26-1.47-1.15-2.16.06L160,64.34l-1.18.36,1.56-1.18a.25.25,0,0,0,.14-.08l.07,0,.06-.1.16-.12.51-.5c.9-1,1.82-2.06,1.59-3.49a13.25,13.25,0,0,0-1-2.66Zm8,1.95-.29-.1L168.28,58c.22,0,.5.18.65.09C169.6,57.7,169.18,57.19,169.1,56.73Zm-3.55-.2-1.18,1c.19.12.41.37.56.34C165.51,57.8,165.64,57.36,165.55,56.53Z" style="fill:#ea2a26"/><path d="M160.39,63.52l-1.56,1.18,1.18-.36,1.62,1.09.2.27-.53,2-.46.16-1.19,1c-.2-.13-.46-.21-.58-.38a3.36,3.36,0,0,0-3.6-1.33l-.3-.43.11-.24,1.3-1.5-.54,0c-.07-.28-.11-.5-.17-.72a3.26,3.26,0,0,0-2.66-2.26l0-2.1,2-.11a.34.34,0,0,1,.15-.06c1.64,0,2.17,1.58,3.29,2.33C159.22,62.55,159.8,63.05,160.39,63.52Z" style="fill:#fffffe"/><path d="M174.8,74.41c-.11.1-.22.29-.31.28-.86-.06-1.16.54-1.46,1.16l-.83,0c-.3,1.08-1.44.46-2,1,.18-.35.35-.71.53-1.07,0-.06,0-.13.07-.19l-.24,0-.67-.38,0,0,1-.47c-.09-.42-.18-.87-.28-1.32.28-.13.94.68.84-.34,0-.19-.07-.38-.1-.56.86,1,1.1,1,2.2.51.14-.07.37,0,.56.06l.63.08c0,.17.1.33.13.51a2.67,2.67,0,0,1,0,.4Z" style="fill:#469f47"/><path d="M171.42,73c.09,1-.57.21-.85.34-.81-.42-1.65-.8-2.43-1.29a9.07,9.07,0,0,1-4.5-7.46,8.53,8.53,0,0,1,.23-1.79l1-1.26-.87,3.3a7.66,7.66,0,0,0,2.12,4.87A7.76,7.76,0,0,0,171.42,73Z" style="fill:#faaa1a"/><path d="M161.83,65.7l-.2-.27-.24-2.26c.69-1.21,1.43-.32,2.16-.06-.41.68-.81,1.36-1.23,2A4.27,4.27,0,0,1,161.83,65.7Z" style="fill:#e95b33"/><path d="M162.14,67.74a2.72,2.72,0,0,1,2.79,2.84h0c-.32-.54-.46-1.3-1.37-1.08l-.61-1-.48-.15Z" style="fill:#ef4624"/><path d="M162.14,67.74l.3.58-1.39.56-.21-1,.46-.16Z" style="fill:#ee7124"/><path d="M169.86,75.21a.58.58,0,0,1-.18-.08s0-.07,0-.1l.17.14Z" style="fill:#469f47"/><path d="M188.86,83.15l-.65,0,.19.67c-.13.11-.32.34-.37.31-.62-.35-1.22-.74-1.83-1.12l1.4-1,.74.11Z" style="fill:#faaa1a"/><path d="M202.66,75.69a9.93,9.93,0,0,0,1.42.21,2.31,2.31,0,0,0,2-1.06c-.15.48-.31,1-.46,1.44l-.58.51-2.17.21c-.16,0-.44,0-.47.06-.35,1-1.31,1-2,1.31l-.62-.07-1.67-1.46-.1-.91c.38-.59.58.08.65.18a2.2,2.2,0,0,0,2.07.86c.7-.06,1.47-.21,1.68-1.1Z" style="fill:#7361a8"/><path d="M202.09,80.4a1.67,1.67,0,0,1,1.5-.81,2.78,2.78,0,0,1,.77.32c.47.36,1.28.46,1.14,1.33A2.28,2.28,0,0,1,203.58,83a1.68,1.68,0,0,1-1.86-1.22,4.79,4.79,0,0,0,.68-.34c.34-.25.65-.54,1-.81Z" style="fill:#b5a7d0"/><path d="M196.12,75.75c.06.36.13.72.19,1.08l0,.23a2.8,2.8,0,0,0,1.83,3.36,1.33,1.33,0,0,0,1.69-.65,3.39,3.39,0,0,1,.41-.51l1.31.76-.51.59c-.21-.42-.39-.65-.89-.24a2.56,2.56,0,0,1-4.15-.94l-.19-.7a1,1,0,0,1-.07-.15l-.09-.17c-.31-.54.36-1.44-.59-1.66l.81-1.27Z" style="fill:#8d7cb8"/><path d="M196,79.43a2.56,2.56,0,0,0,4.15.94c.5-.41.68-.18.89.24l-.83,1-.43.23-1.51.5-.66-.07h0l-1.07-.6C196.11,81,195.19,80.41,196,79.43Z" style="fill:#7361a8"/><path d="M198.08,76.84l1.67,1.46c-.23,1.37-.89,1.9-1.9,1.44-.3-.13-.49-.5-.73-.77l1.21-.53,0-.3-1.2.08c-.09-.29-.18-.58-.28-.88Z" style="fill:#b5a7d0"/><path d="M202.09,80.4l1.29.21c-.33.27-.64.56-1,.81a4.79,4.79,0,0,1-.68.34l-.5-.67Z" style="fill:#d5cee6"/><path d="M198.08,76.84l-1.27.5-.53-.28,0-.23L197.6,76l.38,0Z" style="fill:#d5cee6"/><path d="M197.09,78.22l1.2-.08,0,.3-1.21.53C196.93,78.73,196.57,78.49,197.09,78.22Z" style="fill:#d5cee6"/><path d="M204.51,78.27l1.21-.26c.05,1-.9.59-1.18,1Z" style="fill:#d5cee6"/><path d="M207.94,79.79s0,.08-.07.08-.05-.08-.07-.13Z" style="fill:#8d7cb8"/><path d="M153.21,62.07a3.26,3.26,0,0,1,2.66,2.26c.06.22.1.44.17.72l.54,0-1.3,1.5-.44-1.15c.49-.56.35-1-.41-1.41v1l-.83.32c0-.51-.11-1.2.16-1.49.71-.76.43-1.07-.35-1.34Z" style="fill:#e4233c"/><path d="M153.4,62.48c.78.27,1.06.58.35,1.34-.27.29-.12,1-.16,1.49l-.54.34a.52.52,0,0,1-.06-.16,1.53,1.53,0,0,0-1.62-1.89v-.3Z" style="fill:#f26859"/><path d="M153.05,65.65l.54-.34.83-.32.42.43.44,1.15-.11.24-.36.38-.35,0-.39,0-.85-.76-.16-.45a1.79,1.79,0,0,1,0-.23A.21.21,0,0,1,153.05,65.65Zm.71.1-.19.4.89.46a3.25,3.25,0,0,0,.17-.46A8.59,8.59,0,0,0,153.76,65.75Z" style="fill:#f59578"/><path d="M151,60.94c-.8-.24-.84-.79-.61-1.47l.14,0,.94-.16h0l.61,1.1h0l-.95.54A.3.3,0,0,1,151,60.94Z" style="fill:#f59578"/><path d="M152.07,60.39l-.61-1.1C152.15,59.39,152.36,59.75,152.07,60.39Z" style="fill:#f26859"/><path d="M151.12,60.93l.95-.54C152,61,151.69,61.2,151.12,60.93Z" style="fill:#f26859"/><path d="M153.22,66.48l.85.76C153.47,67.34,153.23,67.05,153.22,66.48Z" style="fill:#f26859"/><path d="M151.46,59.29l-.94.16Z" style="fill:#f26859"/><path d="M154.46,67.21l.35,0-.3.17A.88.88,0,0,0,154.46,67.21Z" style="fill:#f26859"/><path d="M153.09,59.75l.11.22Z" style="fill:#fffffe"/><path d="M153.08,65.8a1.79,1.79,0,0,0,0,.23A1.79,1.79,0,0,1,153.08,65.8Z" style="fill:#f26859"/><path d="M155.23,70.8c.66-.3.09-.58,0-.86.68.16,1.41.41,1.71-.53a3.62,3.62,0,0,0,0-1l.46.54-.64,1.4a1.78,1.78,0,0,1,.92,2.45l-1.18-.25.86-1.14c-.55-.81-1.19-.68-1.87-.21Z" style="fill:#e95b33"/><path d="M162.92,68.48l.61,1c-.45.36-1.08.61-.91,1.38l-1.45-.49-.11-.27v0C161.62,69.52,161.84,68.52,162.92,68.48Z" style="fill:#ee7124"/><path d="M157.38,71.42l-.86,1.14,1.18.25-.5.39-1.62-.64.47,1.39-.5,0c-.07-.4-.14-.8-.22-1.24l-1,.1c0-.13,0-.26,0-.39,1.11.08,1.18-.5.86-1.34,0-.06.05-.16.07-.23l.28.41c.53,1.09.53,1.09,1.49.41A2.75,2.75,0,0,1,157.38,71.42Z" style="fill:#00763d"/><path d="M162.92,68.48c-1.08,0-1.3,1-1.86,1.66-.25-.8-.94-.54-1.48-.63,0-.18,0-.37.07-.56l1.19-1,.21,1,1.39-.56Z" style="fill:#00763d"/><path d="M162.62,70.88c-.17-.77.46-1,.91-1.38.91-.22,1.05.54,1.37,1.08l-.56.76A1,1,0,0,1,162.62,70.88Zm1.39.46c.06-.48.21-.83.1-1a.78.78,0,0,0-.73-.23.79.79,0,0,0-.26.76C163.2,71,163.59,71.11,164,71.34Z" style="fill:#ed7e4b"/><path d="M156.05,74l-.47-1.39,1.62.64.17.38Z" style="fill:#ee7124"/><path d="M161.06,70.12l.11.27-.33,0Z" style="fill:#00763d"/><path d="M205.05,76.79l.58-.51c.15.44.29.88.44,1.32C205.33,77.84,205.09,77.44,205.05,76.79Z" style="fill:#a291c4"/><path d="M198.24,82.39l1.51-.5c.09.16.18.32.28.48s0,.62.07.93C199.21,83.55,198.79,82.83,198.24,82.39Z" style="fill:#a291c4"/><path d="M198.24,82.39c.55.44,1,1.16,1.86.91.2.65-.39.56-.58.45-.68-.42-1.29-1-1.94-1.43Z" style="fill:#8d7cb8"/><path d="M197.68,83.64l-1.05.2c-.29-.73.36-1,.72-1.37Z" style="fill:#d5cee6"/><path d="M183.38,74.24l.78.81.26-.78.24,0,.44,1.61,2.49-.16c-.28.22-.59.43-.85.68a8,8,0,0,0-.65.77l-.66.17.14,1.46.84.68-.42-.13-.37,1.91-.84-1.5-.52.44-.17-1.66-.63-.3c0-.5-.05-1-.09-1.65l-.55-.62-.07-.25-.06-.29.71.07-.47-1.14.15-.38Z" style="fill:#469f47"/><path d="M185.62,81.23l.37-1.91.42.13.72.48.09-.33-.94-1.46.53-.15.77,1,.58-.63c.43.73.52,1.73,1.56,2l.37.38c-.42.29-.29.57-.05.92.11.16,0,.47,0,.71l-.66,0-1-.11-.74-.11c-.09-.2-.14-.55-.25-.57a15.65,15.65,0,0,0-1.68-.15l0-.07Z" style="fill:#64567d"/><path d="M182.69,75.4l.06.29h-.21l-.57-.06-1.18-.56-.17-.29,1.65-.34Z" style="fill:#ea2a26"/><path d="M182.82,75.94l.55.62c0,.65.06,1.15.09,1.65l-.67-.09C183.23,77.36,181.83,76.65,182.82,75.94Z" style="fill:#e95b33"/><path d="M182.93,80.71c-.09-.61-.17-1.23-.26-1.84l.86-.38Z" style="fill:#e95b33"/><path d="M183.17,81.16l.1,0-.1,0Z" style="fill:#e95b33"/><path d="M165.94,80l-.44-.18c-.57-.55-.31-1.17-.17-1.79l.24-.16.13-.07.27-.14v0l.25,0v0l.8.38.21.39,0,.47L166.45,80Z" style="fill:#f59578"/><path d="M163.74,80l-.92-1.19-.68-.69,1.88-.24.17,2.35Z" style="fill:#ee7124"/><path d="M157,68.42a3.62,3.62,0,0,1,0,1c-.3.94-1,.69-1.71.53-.08-.13-.16-.26-.25-.39a1.35,1.35,0,0,1,1.64-1.38Z" style="fill:#f59578"/><path d="M156.6,68.17A1.35,1.35,0,0,0,155,69.55l-.28-.47C155.2,67.86,155.8,67.57,156.6,68.17Z" style="fill:#e95b33"/><path d="M167,78l-.8-.38Z" style="fill:#e95b33"/><path d="M167.2,78.89l0-.47Z" style="fill:#e95b33"/><path d="M165.94,80l.51.07-.43.1Z" style="fill:#e95b33"/><path d="M166.23,77.63l-.25,0Z" style="fill:#ef4624"/><path d="M147.41,68.53a1.69,1.69,0,0,1,1-2.24c.33.59.66,1.17,1,1.76l-.14.1L148.09,68Z" style="fill:#f26859"/><path d="M149.2,68.15l.14-.1.31-.16,1.17-.08.26.23-.42,1-.9-.21Z" style="fill:#f9ab93"/><path d="M149.2,68.15l.56.7c-.9.4-1.27-.24-1.67-.84Z" style="fill:#e4233c"/><path d="M150.66,69.06l.42-1,.27-.09c0,.11.08.23.11.34Z" style="fill:#f26859"/><path d="M150.82,67.81l-1.17.08C150,67.34,150.39,67.27,150.82,67.81Z" style="fill:#f26859"/><path d="M165.7,77.77l-.13.07a.66.66,0,0,1,0-.14Z" style="fill:#e95b33"/><path d="M205.33,52.87h0Z" style="fill:#51ac47"/><path d="M149.92,63.74l.32.23Z" style="fill:#ea2a26"/><path d="M166.14,69.75A7.66,7.66,0,0,1,164,64.88a8.09,8.09,0,0,0,1.5-.65,1.28,1.28,0,0,1,2,.3c0,.47,0,1.07.31,1.32a.8.8,0,0,0,1.26-.22l.28.69a7.9,7.9,0,0,0,.78,1.32,1.15,1.15,0,0,0,1.68.23,1.88,1.88,0,0,0,.25-1.54c-.1-.39-.63-.67-1-1l-.54-.72.25-.92h0c.05-.3.11-.6.14-.9,0-.53.12-1,.74-1.18l1.73,1.11,1.36,1.53c.29.51.56,1,.88,1.53.07.11.27.13.42.19l-.08.62.08.15.15.54a1.29,1.29,0,0,1-1.13-1c0-.14-.44-.2-.57-.25a6.13,6.13,0,0,0-.39,1,6.79,6.79,0,0,0,0,1.09L171.74,70h0l-1.17-.33.19-.27-.12-.07-.11.33L169,69.31l.06-.22-.72.33-.32-.57Zm2.42-1.2h0Z" style="fill:#79a96b"/><path d="M166.14,69.75l1.88-.9.32.57.72-.33-.06.22,1.54.31h0l1.17.33s0,0,0,.06,0,0,0,0l0-.11,2.46-1.82a6.79,6.79,0,0,1,0-1.09,6.13,6.13,0,0,1,.39-1c.13,0,.54.11.57.25a1.29,1.29,0,0,0,1.13,1,5.52,5.52,0,0,1-.6,4.73l-1,1.13-.63-.08c-.19,0-.42-.13-.56-.06-1.1.54-1.34.49-2.2-.51,0,.18.07.37.1.56A7.77,7.77,0,0,1,166.14,69.75Z" style="fill:#b5c9a5"/><path d="M180,68.34l1.85,1.17a10.63,10.63,0,0,1-2.71.13,4.15,4.15,0,0,0-2.23-.26l1.31-1.14V68l-1.62.13,2.31-1.29L177,66.38l.73-.79-.38-.44a4.45,4.45,0,0,1,3.55-.9l-1.4.79.23.26c-.61.36-1.08.75-.34,1.46l-.42.45.55.1L179,68l1.08-.17Z" style="fill:#faaa1a"/><path d="M180,68.34l0-.48L179,68l.56-.72-.55-.1.42-.45c-.74-.71-.27-1.1.34-1.46l.74-.11.13,1.61h.25l-.47.73.88.52v0Z" style="fill:#fcbc15"/><path d="M183.17,66.82l.47.5,1.09.89a2.32,2.32,0,0,1-2.86-1.72c0-.66.44-.93,1-1Z" style="fill:#ee7124"/><path d="M175.53,63.87c-.06-.24-.11-.48-.17-.72,1-.15,2-.32,3-.45a2.67,2.67,0,0,1,.77.14l-3.43,1.29Z" style="fill:#ee7124"/><path d="M175.53,63.87l.2.26.39,1.83c-.15-.06-.35-.08-.42-.19-.32-.5-.59-1-.88-1.53Z" style="fill:#f9ab93"/><path d="M182.69,75.4l-.42-1,.66-.12.47,1.14Z" style="fill:#e95b33"/><path d="M181.27,68.05l.1,0-.11,0Z" style="fill:#fcbc15"/><path d="M176.12,66.73l-.08-.15A1.09,1.09,0,0,1,176.12,66.73Z" style="fill:#b5c9a5"/><path d="M198.69,74.3l-.86-.1-.71-.76.57-.19c1.55-.51,1.85-1.54.84-2.81a9.93,9.93,0,0,1-.66-1.14c.53-.25,1-.7,1.58-.7,1,0,1.68-.2,2-1.2l.54.28c-.09.29-.19.57-.26.87s-.23.73-.78.72a.83.83,0,0,0-.6.52c-.16.69-.19,1.41-.3,2.11-.1.55-.25,1.09-.38,1.64l-.67.6Z" style="fill:#00763d"/><path d="M204.61,72.63l.78.56a1.86,1.86,0,0,1-.21.56c-.29.36-.61.91-1,1a1.35,1.35,0,0,1-1.55-.81,2.49,2.49,0,0,1,.69-.31c.61-.09.59-.36.33-.74l-.75.12-.16-.29Z" style="fill:#b5a7d0"/><path d="M199,74.14l.67-.6,2,.33c.47.67.2,1.2-.38,1.61a1.53,1.53,0,0,1-2-.5l1.17-.65.06-.21a4.58,4.58,0,0,0-.81-.14A3,3,0,0,0,199,74.14Z" style="fill:#b5a7d0"/><path d="M197.12,73.44l.71.76-1.71,1.55-.28-.27L195,76.75c.95.22.28,1.12.59,1.66l.09.17a1,1,0,0,0,.07.15l-1.62,0c-.18,1.09-.44,1.56-1.12,1.65a1.22,1.22,0,0,1-1.36-.81,3.11,3.11,0,0,1,.42-.32,4.79,4.79,0,0,0,.68-.34s-.11-.45-.22-.47a2.13,2.13,0,0,0-.78.09,1.48,1.48,0,0,0-.37.2l.46-.67,1-.23.41-.1c.48.74,1,.06,1.51.09-.35-.74-.35-.74-1.4-.2l.26-.75a8.76,8.76,0,0,1-.89-.65c-.07-.06,0-.3,0-.45L194,75.3c0-.53-.19-.74-.68-.54a6.56,6.56,0,0,0-.69.37l-.27-.18c.43-.21.85-.43,1.29-.63a3.57,3.57,0,0,0,.66-.29A2.76,2.76,0,0,1,197.12,73.44Zm-2.52.74c1,.44,1.4.26,1.44-.59Z" style="fill:#b5a7d0"/><path d="M189.26,76l.14-.15h2.2l-.06.66c0,.31.05.63.08.94-.74.26-1.44.36-1.85-.53l.85-.62-.17-.26-1,.25Z" style="fill:#b5a7d0"/><path d="M191.54,76.5l.06-.66c.24-.3.47-.6.71-.89l.27.18.2.68c0,.15-.1.39,0,.45a8.76,8.76,0,0,0,.89.65c-.09.27-.18.51-.26.75l-.11.11-.41.1Z" style="fill:#8d7cb8"/><path d="M189.77,76.91c.41.89,1.11.79,1.85.53l.25.66c-.16.22-.31.44-.46.67s-.33.25-.66.51l.93.33a1.22,1.22,0,0,0,1.36.81c.68-.09.94-.56,1.12-1.65l1.62,0,.19.7c-.78,1,.14,1.57.53,2.29-.67,0-1.19-.14-1.09-1a3.69,3.69,0,0,0-.35-1.16c-.73.87-1.34,1.86-2.46,1.65a3.11,3.11,0,0,1-2.4-1.73l.13-.48a1.55,1.55,0,0,0,0-.29l-1.16-.28-.09-.15c-.21-.49-.41-1-.62-1.48l.15-.48.61-.31.16.3C189,76.76,189.22,76.94,189.77,76.91Z" style="fill:#a291c4"/><path d="M188.65,76.29l-.15.48-.42.67-.5.09c-.35-.7-.92-.53-1.49-.39a8,8,0,0,1,.65-.77c.26-.25.57-.46.85-.68l.89.33Z" style="fill:#b5a7d0"/><path d="M155.3,59.8a.34.34,0,0,0-.15.06c-.29-.17-.68-.27-.84-.52a4.41,4.41,0,0,1-.61-1.47c0-.14.42-.39.65-.58l1.55,0c.7.31.78,1.2.16,1.87A9.86,9.86,0,0,1,155.3,59.8Z" style="fill:#b5c9a5"/><path d="M155.9,57.24l-1.55,0a1.25,1.25,0,0,1,1.28-1,10.07,10.07,0,0,1,1.07.09Z" style="fill:#441c13"/><path d="M161.1,54.78l.77,1.81-2.34-1.07Z" style="fill:#e95b33"/><path d="M161.33,62.74l-.51.5Z" style="fill:#fffffe"/><path d="M160.66,63.36l-.06.1-.07,0A.2.2,0,0,0,160.66,63.36Z" style="fill:#fffffe"/><path d="M148.91,42.17l.58.31Z" style="fill:#ea2a26"/><path d="M148.83,42l.08.17Z" style="fill:#ea2a26"/><path d="M144.07,45.27c-1.29.71-2.29.5-2.82-.79a2.48,2.48,0,0,1,.07-1.47,2.94,2.94,0,0,1,2.56-2.1c1.46,0,2.19.83,1.85,2.24A3,3,0,0,1,144.07,45.27Zm0-1.18a1.23,1.23,0,0,0,.51-1.73,1,1,0,0,0-1.33-.41c-.65.33-1.23,1.49-.91,2S143.24,44.56,144.06,44.09Z" style="fill:#f59578"/><path d="M146.92,57.26v0Z" style="fill:#ea2a26"/><path d="M190,82.33c0-.24.14-.55,0-.71-.24-.35-.37-.63.05-.92.56,1.39,2.27,1.82,3.75,1.43a1.89,1.89,0,0,1,1.74.33c.25.18.53.32.94.57l-1,.63-.47-.15h0l-.26-.82-1.21.68-.48.23-1.06-.43Z" style="fill:#7361a8"/><path d="M189.12,78.25l.09.15,1.12.57-.13.48-.48.87c-1-.25-1.13-1.25-1.56-2,0-.17,0-.34,0-.51Z" style="fill:#7361a8"/><path d="M193.59,83.37l1.21-.68.26.82A1,1,0,0,1,193.59,83.37Z" style="fill:#a291c4"/><path d="M195.05,83.51l.47.15Z" style="fill:#a291c4"/><path d="M188.34,82.2l1,.11c.22.34.44.69.67,1l-1.16-.19Z" style="fill:#a3732b"/><path d="M199.76,89.51l-.23-.09Z" style="fill:#7bb643"/><path d="M174.8,74.41l0-.37,1.35.66.15.29Z" style="fill:#ea2a26"/><path d="M180.79,75.08l1.18.56a5.15,5.15,0,0,1-1,.16C180.89,75.8,180.84,75.33,180.79,75.08Z" style="fill:#ed7e4b"/><path d="M207.26,91.47c-.15-.17-.29-.35-.45-.5-.68-.67-.7-1-.07-1.9A2,2,0,0,1,208,91.2l-.69.27Z" style="fill:#469f47"/><path d="M198,75.93l-.38,0,.73-1.28a3,3,0,0,1,.41.54,1.87,1.87,0,0,0,2.73,1.15c.31-.15.6-.33.91-.49-.21.89-1,1-1.68,1.1a2.2,2.2,0,0,1-2.07-.86C198.56,76,198.36,75.34,198,75.93Z" style="fill:#8d7cb8"/><path d="M199,74.14a3,3,0,0,1,.71-.16,4.58,4.58,0,0,1,.81.14l-.06.21-1.17.65c-.19-.23-.39-.45-.59-.68Z" style="fill:#d5cee6"/><path d="M202.94,73l.75-.12c.26.38.28.65-.33.74a2.49,2.49,0,0,0-.69.31C202.09,73.38,202.84,73.27,202.94,73Z" style="fill:#d5cee6"/><path d="M171.73,61.6c-.62.16-.7.65-.74,1.18,0,.3-.09.6-.14.9l-.43.09.05.15.37-.23c-.08.31-.17.61-.25.92-.76,0-1.43,0-1.48,1a.8.8,0,0,1-1.26.22c-.29-.25-.28-.85-.31-1.32a1.28,1.28,0,0,0-2-.3,8.09,8.09,0,0,1-1.5.65l.87-3.3C166.68,59.86,169.91,60.27,171.73,61.6Z" style="fill:#469f47"/><path d="M161.39,63.17l.24,2.26L160,64.34Z" style="fill:#ef4624"/><path d="M169.1,56.73c.08.46.5,1-.17,1.35-.15.09-.43,0-.65-.09l.53-1.36Z" style="fill:#441c13"/><path d="M165.55,56.53c.09.83,0,1.27-.62,1.39-.15,0-.37-.22-.56-.34Z" style="fill:#441c13"/><path d="M195.71,78.58l-.09-.17Z" style="fill:#a291c4"/><path d="M154.84,65.42l-.42-.43c0-.28,0-.57,0-1C155.19,64.44,155.33,64.86,154.84,65.42Z" style="fill:#441c13"/><path d="M153.76,65.75a8.59,8.59,0,0,1,.87.4,3.25,3.25,0,0,1-.17.46l-.89-.46Z" style="fill:#f9ab93"/><path d="M157.38,71.42a2.75,2.75,0,0,0-.38.2c-1,.68-1,.68-1.49-.41C156.19,70.74,156.83,70.61,157.38,71.42Z" style="fill:#ee7124"/><path d="M164,71.34c-.42-.23-.81-.31-.89-.51a.79.79,0,0,1,.26-.76.78.78,0,0,1,.73.23C164.22,70.51,164.07,70.86,164,71.34Z" style="fill:#f59578"/><path d="M186.09,77.14c.57-.14,1.14-.31,1.49.39l-.77.46-.53.15.94,1.46-.09.33-.72-.48-.84-.68-.14-1.46Z" style="fill:#7bb643"/><path d="M186.81,78l.77-.46.5-.09,0,.39c0,.17,0,.34,0,.51l-.58.63Z" style="fill:#a291c4"/><path d="M171.13,65.33c.34.33.87.61,1,1a1.88,1.88,0,0,1-.25,1.54,1.15,1.15,0,0,1-1.68-.23,7.9,7.9,0,0,1-.78-1.32c.3.09.65.31.9.23C170.85,66.39,171.34,66.06,171.13,65.33Z" style="fill:#fffffe"/><path d="M171.13,65.33c.21.73-.28,1.06-.84,1.22-.25.08-.6-.14-.9-.23l-.28-.69c0-1,.72-1.07,1.48-1Z" style="fill:#fff3d1"/><path d="M170.54,69.62l.11-.33.12.07-.19.27Z" style="fill:#b5c9a5"/><path d="M168.56,68.54h0Z" style="fill:#b5c9a5"/><path d="M168.56,68.55h0Z" style="fill:#b5c9a5"/><path d="M171.74,70l0,.11s0,0,0,0,0,0,0-.06Z" style="fill:#79a96b"/><path d="M191.68,79.61l-.93-.33c.33-.26.49-.39.66-.51a1.48,1.48,0,0,1,.37-.2,2.13,2.13,0,0,1,.78-.09c.11,0,.25.45.22.47a4.79,4.79,0,0,1-.68.34A3.11,3.11,0,0,0,191.68,79.61Z" style="fill:#d5cee6"/><path d="M191.87,78.1l-.25-.66c0-.31-.05-.63-.08-.94l1.32,1.37Z" style="fill:#7361a8"/><path d="M192.78,75.81l-.2-.68a6.56,6.56,0,0,1,.69-.37c.49-.2.7,0,.68.54Z" style="fill:#d5cee6"/><path d="M193.27,77.77l.11-.11c1.05-.54,1.05-.54,1.4.2C194.25,77.83,193.75,78.51,193.27,77.77Z" style="fill:#d5cee6"/><path d="M194.6,74.18l1.44-.59C196,74.44,195.61,74.62,194.6,74.18Z" style="fill:#d5cee6"/><path d="M189.77,76.91c-.55,0-.73-.15-.35-.63l1-.25.17.26Z" style="fill:#d5cee6"/><path d="M188.11,77.83l0-.39.42-.67c.21.49.41,1,.62,1.48Z" style="fill:#8d7cb8"/><path d="M190.33,79l-1.12-.57,1.16.28A1.55,1.55,0,0,1,190.33,79Z" style="fill:#8d7cb8"/><path d="M144.06,44.09c-.82.47-1.36.35-1.73-.18s.26-1.63.91-2a1,1,0,0,1,1.33.41A1.23,1.23,0,0,1,144.06,44.09Z" style="fill:#f9ab93"/><path d="M170.84,63.69l-.37.23-.05-.15.43-.09Z" style="fill:#79a96b"/><path d="M98.44,123.89c1.36,1,2.81,1.94,4.07,3.07s1.48,2.64-.35,3.26c-5.9,2-11.87,3.82-17.81,5.7l-.51-.67,4.06-4.57,6.88-3c-3.19-.81-5.87-1.55-8.58-2.15a3.16,3.16,0,0,0-2.29.19c-3.1,2.25-6.1,4.66-9.13,7l-12.1,7.51-.69-.29,2.49-5.31c3.45-3.25,7.76-5.45,10.4-9.76A18.28,18.28,0,0,1,82,118.11c4.24-2,4.5-5.6,6-9.75-5,2.21-10.13,2.87-11,9.1-.29,2-2.12,2.27-3.35.83,1.33-7.37,5.41-12.4,12.63-14.74,1.19-.39,2.37-.84,3.56-1.26l1.9-.26.65.14.24.65-4,14.73,6.17,6.8Z" style="fill:#461811"/><path d="M89.78,102.29c-1.19.42-2.37.87-3.56,1.26-7.22,2.34-11.3,7.37-12.63,14.74-3,2.8-6.09,5.77-10.45,6.13a81.46,81.46,0,0,1-9.1-.24c-4.36-2.25-6.22-6.06-7.14-11.14,7,3,13,1.27,18.74-2,4-2.24,7.89-4.76,12-6.79a78.65,78.65,0,0,1,9-3.22Z" style="fill:#ed3d29"/><path d="M54,124.18a81.46,81.46,0,0,0,9.1.24c4.36-.36,7.4-3.33,10.45-6.13,1.23,1.44,3.06,1.18,3.35-.83.89-6.23,6-6.89,11-9.1-1.46,4.15-1.72,7.74-6,9.75a18.28,18.28,0,0,0-7.12,6.74c-2.64,4.31-6.95,6.51-10.4,9.76-4.16-.1-7.51-1.53-9.17-5.68l.23-.3h5.81l.24-1.07Z" style="fill:#e92225"/><path d="M98.44,123.89l-3.72.46,3.36-18.75,0-.22,1.91-.6,8.39-2.65c0,2-.07,3.9-.11,5.85L104,113.11l.59.73,3.29-.82c.15,6.73.15,6.72-6,9.26C100.68,122.75,99.57,123.35,98.44,123.89Z" style="fill:#f5991f"/><path d="M108.43,102.13,100,104.78c-.18-.25-.5-.49-.54-.76-.56-4.57,3.32-11,7.47-12.85,1.31-.59,2.25-2,3.36-3C112.51,93.2,111.29,97.78,108.43,102.13Z" style="fill:#5a5269"/><path d="M91,85.55l5,3.72c1.59,2,3.53,3.77,3,6.68l-1,3c-.31,1.28-.62,2.56-.92,3.84a24.38,24.38,0,0,1-3-2.31c-.69-.71-1.72-2.1-1.48-2.52,1.29-2.15-.14-3.86-1.23-4.79C88.39,90.59,88.73,88.23,91,85.55Z" style="fill:#83b741"/><path d="M91,85.55c-2.27,2.68-2.61,5,.43,7.63,1.09.93,2.52,2.64,1.23,4.79-.24.42.79,1.81,1.48,2.52a24.38,24.38,0,0,0,3,2.31c.3-1.28.61-2.56.92-3.84l.09,6.42,0,.22-5.2-3.44a2.54,2.54,0,0,0-.55,0l-.65-.14c-.5-2.08-3.77-3.21-2.08-6a36.3,36.3,0,0,1-3.12-4.75,5.46,5.46,0,0,1-.4-3.88C86.92,85.26,89,85.12,91,85.55Z" style="fill:#62903f"/><path d="M99.05,96c.52-2.91-1.42-4.72-3-6.68l3.26-5.86,4,.85q.67,2.53,1.33,5.07Z" style="fill:#eb4f25"/><path d="M74.78,132.7c3-2.35,6-4.76,9.13-7a3.16,3.16,0,0,1,2.29-.19c2.71.6,5.39,1.34,8.58,2.15l-6.88,3Z" style="fill:#e52326"/><path d="M99.05,96l5.55-6.62,5.73-1.16c-1.11,1-2,2.41-3.36,3-4.15,1.89-8,8.28-7.47,12.85,0,.27.36.51.54.76l-1.91.6L98,99Z" style="fill:#3f3849"/><path d="M89.6,96c-1.69,2.83,1.58,4,2.08,6l-1.9.26-3.14-1.21-3.52-4.6Z" style="fill:#4a6730"/><path d="M103.27,84.26l-4-.85L98,80.87l.69-.65,2.31,1.4,5.24-1.06.56,1.21Z" style="fill:#91bb45"/><path d="M107.86,113l-3.29.82-.59-.73,4.34-5.13C109.61,109.79,109.23,111.45,107.86,113Z" style="fill:#4f2216"/><path d="M81.61,98.54c-1.21.94-1.92,1.9-2.55,1.86s-1.31-1-2-1.61c.59-.63,1.11-1.66,1.79-1.78S80.32,97.76,81.61,98.54Z" style="fill:#679342"/><path d="M55.31,128.93l-.14-.53.37.23Z" style="fill:#e92225"/><path d="M92.88,102.16l5.2,3.44-3.36,18.75-6.17-6.8c1.17-4.28,2.59-9.5,4-14.73Z" style="fill:#fac762"/><path d="M92.88,102.16l-.32.66c-.07-.21-.15-.43-.23-.65A2.54,2.54,0,0,1,92.88,102.16Z" style="fill:#4a6730"/><path d="M0,110.05Q0,72.38,21,51.41t58.44-21q38.4,0,59.18,20.62t20.77,57.75q0,27-9.07,44.23a64.77,64.77,0,0,1-26.23,26.86q-17.16,9.6-42.76,9.6-26,0-43.07-8.29T10.6,155Q0,137,0,110.05Zm47.53.21q0,23.3,8.65,33.47t23.56,10.18q15.32,0,23.71-10t8.39-35.77q0-21.72-8.76-31.74t-23.76-10q-14.38,0-23.08,10.17T47.53,110.26Z" style="fill:#f15a29"/></svg>